<svg width="271" height="271" viewBox="0 0 271 271" fill="none" xmlns="http://www.w3.org/2000/svg">
<path d="M135.932 239.27L126.091 259.004L120.596 258.479L114.668 237.24L119.476 237.699L120.555 241.87L129.484 242.723L131.333 238.831L135.932 239.27ZM127.858 246.184L121.497 245.576L122.837 250.797C122.895 251.024 122.97 251.292 123.061 251.602C123.13 251.93 123.206 252.289 123.29 252.679C123.373 253.069 123.457 253.448 123.543 253.818C123.606 254.206 123.673 254.554 123.744 254.862L123.924 254.879C124.059 254.51 124.231 254.075 124.44 253.572C124.647 253.09 124.853 252.617 125.058 252.155C125.261 251.712 125.426 251.346 125.554 251.057L127.858 246.184Z" fill="white"/>
<path d="M115.753 237.405L109.955 257.151L103.421 255.232L103.567 244.301C103.559 243.902 103.57 243.437 103.602 242.904C103.633 242.371 103.664 241.838 103.696 241.306C103.702 240.786 103.724 240.324 103.759 239.917L103.529 239.85C103.395 240.165 103.215 240.529 102.99 240.942C102.758 241.374 102.509 241.833 102.242 242.317C101.975 242.801 101.703 243.264 101.428 243.704L95.6491 252.95L89.2301 251.066L95.0281 231.319L99.2595 232.562L96.5126 241.917C96.2591 242.78 96.0055 243.644 95.7519 244.507C95.4736 245.384 95.229 246.146 95.0182 246.793C94.7883 247.434 94.6451 247.851 94.5888 248.043L94.819 248.11C94.9194 247.911 95.1309 247.545 95.4534 247.015C95.7511 246.498 96.0793 245.948 96.438 245.365C96.7775 244.777 97.082 244.273 97.3515 243.851L103.635 233.846L107.377 234.945L107.291 246.739C107.288 247.175 107.284 247.685 107.28 248.267C107.25 248.863 107.219 249.469 107.184 250.084C107.124 250.713 107.09 251.255 107.081 251.711L107.312 251.779C107.445 251.255 107.609 250.626 107.803 249.891C107.993 249.175 108.19 248.431 108.397 247.657C108.597 246.903 108.79 246.21 108.976 245.576L111.723 236.221L115.753 237.405Z" fill="white"/>
<path d="M97.1138 232.083L80.644 246.746L75.7376 244.217L78.1283 222.295L82.4214 224.508L81.8722 228.782L89.845 232.892L93.0074 229.966L97.1138 232.083ZM87.0488 235.501L81.3691 232.573L80.6725 237.918C80.6428 238.15 80.6126 238.427 80.5817 238.748C80.524 239.079 80.4614 239.44 80.3939 239.833C80.3265 240.226 80.2636 240.61 80.2053 240.985C80.12 241.368 80.0531 241.716 80.0045 242.029L80.1645 242.111C80.4275 241.819 80.7493 241.479 81.1298 241.09C81.5011 240.719 81.8678 240.357 82.23 240.003C82.583 239.668 82.8727 239.39 83.099 239.169L87.0488 235.501Z" fill="white"/>
<path d="M77.6809 221.756L64.9592 237.933L61.7285 235.392L62.0815 221.549C62.0737 221.365 62.0795 221.115 62.0987 220.799C62.1056 220.499 62.1203 220.205 62.1429 219.918C62.1655 219.63 62.1965 219.413 62.2358 219.266L62.1179 219.173C61.9078 219.44 61.7038 219.7 61.5059 219.951C61.2958 220.218 61.1103 220.454 60.9496 220.659L54.088 229.384L50.763 226.769L63.4847 210.592L66.7154 213.133L66.337 227.3C66.3211 227.643 66.2945 228.017 66.2573 228.42C66.22 228.823 66.1851 229.127 66.1524 229.33L66.2703 229.423C66.4558 229.187 66.6412 228.951 66.8267 228.715C66.9998 228.495 67.1667 228.283 67.3274 228.079L74.3559 219.141L77.6809 221.756Z" fill="white"/>
<path d="M57.0391 202.692C58.4667 204.339 59.4031 206.015 59.8483 207.72C60.2934 209.425 60.194 211.112 59.55 212.782C58.906 214.451 57.6847 216.065 55.886 217.624C54.0571 219.209 52.2781 220.194 50.5491 220.581C48.8049 220.981 47.1283 220.833 45.5192 220.136C43.8951 219.453 42.3692 218.288 40.9416 216.64C39.4878 214.962 38.5449 213.279 38.1128 211.589C37.6525 209.897 37.7443 208.216 38.3883 206.547C39.0172 204.891 40.2461 203.27 42.075 201.685C43.8737 200.127 45.6451 199.147 47.3893 198.748C49.1334 198.348 50.8176 198.489 52.4418 199.173C54.0528 199.841 55.5853 201.014 57.0391 202.692ZM54.273 205.088C53.6313 204.348 52.9623 203.79 52.2661 203.414C51.5699 203.038 50.8464 202.844 50.0958 202.833C49.3451 202.822 48.5824 202.98 47.8075 203.307C47.0175 203.648 46.2296 204.159 45.4436 204.84L44.7407 205.449C43.9396 206.143 43.3144 206.857 42.8649 207.59C42.4155 208.324 42.1504 209.056 42.0697 209.788C41.9739 210.532 42.0625 211.276 42.3355 212.019C42.6085 212.761 43.0659 213.503 43.7076 214.243C44.3363 214.969 44.9987 215.52 45.695 215.896C46.3912 216.271 47.1146 216.465 47.8652 216.476C48.6008 216.5 49.3635 216.342 50.1535 216.002C50.9304 215.646 51.7194 215.121 52.5205 214.427L53.2233 213.818C54.0093 213.137 54.6336 212.437 55.0961 211.719C55.5304 210.999 55.7955 210.266 55.8913 209.521C55.9871 208.777 55.8985 208.033 55.6255 207.291C55.3525 206.548 54.9017 205.814 54.273 205.088Z" fill="white"/>
<path d="M49.4351 193.984L31.6123 204.274L27.4123 196.999C26.3423 195.146 25.7528 193.384 25.6436 191.715C25.5345 190.046 25.9381 188.485 26.8544 187.033C27.7435 185.573 29.2099 184.252 31.2537 183.072C33.2802 181.902 35.1567 181.293 36.883 181.243C38.5994 181.175 40.153 181.606 41.5438 182.535C42.9347 183.464 44.1651 184.856 45.2351 186.709L49.4351 193.984ZM44.0045 191.957L42.0545 188.58C41.6045 187.801 41.0919 187.173 40.5167 186.696C39.9416 186.22 39.3225 185.908 38.6595 185.76C37.9791 185.621 37.2499 185.638 36.4717 185.81C35.6762 185.992 34.8368 186.338 33.9534 186.848L33.174 187.298C32.2907 187.808 31.5799 188.357 31.0417 188.945C30.4862 189.543 30.107 190.166 29.904 190.815C29.6836 191.473 29.6359 192.17 29.7607 192.906C29.8682 193.653 30.147 194.416 30.597 195.195L32.547 198.572L44.0045 191.957Z" fill="white"/>
<path d="M39.5388 175.889L20.0907 182.62L14.7137 167.085L18.1724 165.887L22.0776 177.171L26.4152 175.67L22.9613 165.69L26.3917 164.503L29.8455 174.482L34.58 172.844L30.6159 161.39L34.103 160.183L39.5388 175.889Z" fill="white"/>
<path d="M32.7631 151.762L13.4513 162.055L12.764 157.274L25.1383 151.01C25.3447 150.899 25.5992 150.772 25.9017 150.627C26.1844 150.485 26.4671 150.344 26.7498 150.202C27.0325 150.06 27.2884 149.943 27.5174 149.849L27.4918 149.671C27.2627 149.623 27.0038 149.58 26.7153 149.54C26.4041 149.484 26.0944 149.438 25.786 149.401C25.4748 149.345 25.1849 149.296 24.9161 149.253L11.2483 146.733L10.5866 142.13L32.0202 146.595L32.7631 151.762Z" fill="white"/>
<path d="M28.3299 109.077C28.1413 109.854 27.8087 110.504 27.3322 111.026C26.8361 111.544 26.2444 111.905 25.557 112.108C24.8743 112.293 24.1443 112.29 23.3668 112.102C22.5699 111.909 21.9103 111.574 21.388 111.097C20.8703 110.601 20.5096 110.009 20.306 109.322C20.1023 108.634 20.0947 107.902 20.2833 107.125C20.4767 106.328 20.8213 105.67 21.3174 105.153C21.8134 104.635 22.4051 104.274 23.0925 104.071C23.7799 103.867 24.522 103.862 25.3189 104.055C26.0964 104.244 26.7439 104.586 27.2616 105.082C27.7792 105.578 28.1399 106.17 28.3436 106.857C28.5278 107.54 28.5233 108.28 28.3299 109.077Z" fill="white"/>
<path d="M44.4623 83.4869L32.2924 65.0979L35.4943 60.6014L56.8524 66.0875L54.0507 70.022L49.899 68.8701L44.6959 76.1769L47.1422 79.7236L44.4623 83.4869ZM42.5117 73.0379L46.2182 67.8327L41.0268 66.3825C40.8012 66.3201 40.5314 66.2507 40.2174 66.1745C39.8988 66.0703 39.5498 65.9569 39.1707 65.8342C38.7916 65.7115 38.4206 65.5947 38.0577 65.4836C37.6902 65.3446 37.3552 65.2289 37.0528 65.1363L36.9484 65.2829C37.1999 65.5848 37.4911 65.9517 37.8219 66.3837C38.1363 66.8041 38.4427 67.2186 38.7409 67.6274C39.0228 68.0245 39.2569 68.3508 39.4433 68.6063L42.5117 73.0379Z" fill="white"/>
<path d="M56.1671 66.9445L41.9652 52.0501L46.8939 47.3507L56.2882 52.9427C56.6372 53.1349 57.0346 53.3778 57.4803 53.6714C57.926 53.9649 58.3717 54.2584 58.8174 54.5519C59.2637 54.8172 59.6539 55.067 59.9878 55.3013L60.1615 55.1356C59.9558 54.862 59.7305 54.5242 59.4854 54.1222C59.2265 53.7058 58.9542 53.2608 58.6684 52.7872C58.3826 52.3136 58.1179 51.8475 57.8742 51.3891L52.7561 41.761L57.5979 37.1444L71.7997 52.0388L68.608 55.0821L61.8798 48.0257C61.2587 47.3743 60.6376 46.7229 60.0166 46.0716C59.3962 45.392 58.8586 44.7992 58.4038 44.2932C57.9635 43.7735 57.6743 43.4412 57.5363 43.2965L57.3626 43.4621C57.4855 43.6489 57.696 44.0147 57.9943 44.5593C58.2932 45.0757 58.6053 45.6348 58.9304 46.2367C59.2701 46.8248 59.5549 47.3408 59.7848 47.7848L65.3078 58.2288L62.4853 60.9201L52.3149 54.9489C51.9382 54.7277 51.4987 54.4697 50.9965 54.1748C50.4949 53.8516 49.9864 53.5213 49.4711 53.1836C48.9564 52.8177 48.5038 52.517 48.1133 52.2813L47.9396 52.4469C48.3267 52.824 48.7897 53.2806 49.3287 53.8168C49.8538 54.3386 50.3996 54.882 50.9662 55.4472C51.5189 55.9979 52.023 56.5121 52.4785 56.9898L59.2067 64.0462L56.1671 66.9445Z" fill="white"/>
<path d="M70.0954 53.4632L65.6317 31.8683L70.2755 28.884L88.0646 41.9151L84.0013 44.5264L80.5751 41.9141L73.029 46.7636L73.982 50.9655L70.0954 53.4632ZM72.168 43.0377L77.5436 39.583L73.263 36.3072C73.0768 36.1654 72.8521 36.0007 72.589 35.8132C72.3318 35.5981 72.0501 35.3631 71.7437 35.1083C71.4373 34.8535 71.1363 34.6071 70.8407 34.3692C70.5511 34.1036 70.2832 33.8716 70.0369 33.6733L69.8854 33.7706C70.0068 34.1443 70.1407 34.5932 70.2872 35.1171C70.4229 35.6243 70.5533 36.123 70.6782 36.6133C70.7923 37.0868 70.8883 37.4767 70.9664 37.7832L72.168 43.0377Z" fill="white"/>
<path d="M88.7554 41.7973L81.1065 22.6914L84.9221 21.1639L96.7345 28.3914C96.8979 28.4768 97.1115 28.6067 97.3752 28.7812C97.6315 28.9371 97.8786 29.0967 98.1163 29.2601C98.354 29.4234 98.5268 29.5589 98.6345 29.6666L98.7738 29.6109C98.6474 29.2952 98.5248 28.9889 98.4058 28.6918C98.2795 28.3761 98.168 28.0976 98.0713 27.8562L93.9459 17.5514L97.8729 15.9792L105.522 35.085L101.706 36.6126L89.6263 29.2013C89.3366 29.0157 89.0264 28.8059 88.6958 28.5721C88.3652 28.3382 88.12 28.1563 87.9603 28.0263L87.821 28.0821C87.9325 28.3606 88.044 28.6391 88.1555 28.9176C88.2596 29.1776 88.3599 29.4282 88.4566 29.6696L92.6824 40.2251L88.7554 41.7973Z" fill="white"/>
<path d="M115.586 33.4531C113.446 33.8657 111.526 33.8385 109.827 33.3716C108.128 32.9047 106.716 31.9751 105.593 30.5826C104.469 29.1901 103.682 27.3254 103.231 24.9884C102.773 22.6121 102.809 20.5786 103.339 18.8878C103.864 17.1774 104.831 15.7995 106.239 14.7543C107.643 13.6893 109.415 12.9506 111.555 12.538C113.735 12.1179 115.665 12.1432 117.344 12.6138C119.04 13.0611 120.449 13.9809 121.573 15.3734C122.693 16.7463 123.482 18.6208 123.94 20.9971C124.391 23.3341 124.353 25.3578 123.827 27.0682C123.301 28.7786 122.336 30.1663 120.933 31.2312C119.548 32.2923 117.766 33.033 115.586 33.4531ZM114.894 29.8592C115.856 29.6738 116.674 29.3736 117.348 28.9586C118.021 28.5436 118.551 28.0138 118.936 27.3693C119.321 26.7248 119.565 25.9852 119.669 25.1505C119.769 24.2961 119.721 23.3583 119.524 22.3371L119.348 21.4239C119.147 20.383 118.842 19.4846 118.431 18.7286C118.021 17.9727 117.519 17.3769 116.926 16.9412C116.329 16.486 115.641 16.1909 114.861 16.056C114.081 15.9211 113.21 15.9464 112.248 16.1319C111.305 16.3136 110.497 16.6119 109.824 17.0269C109.15 17.4419 108.621 17.9716 108.236 18.6161C107.847 19.241 107.602 19.9806 107.502 20.835C107.422 21.6856 107.482 22.6313 107.683 23.6722L107.859 24.5854C108.055 25.6066 108.349 26.4971 108.74 27.2568C109.147 27.9932 109.649 28.589 110.246 29.0442C110.842 29.4995 111.531 29.7945 112.31 29.9294C113.09 30.0643 113.951 30.0409 114.894 29.8592Z" fill="white"/>
<path d="M127.056 32L127.056 11.42L135.456 11.42C137.596 11.42 139.416 11.79 140.916 12.53C142.416 13.27 143.566 14.4 144.366 15.92C145.186 17.42 145.596 19.35 145.596 21.71C145.596 24.05 145.186 25.98 144.366 27.5C143.566 29.02 142.416 30.15 140.916 30.89C139.416 31.63 137.596 32 135.456 32H127.056ZM131.526 28.31H135.426C136.326 28.31 137.126 28.18 137.826 27.92C138.526 27.66 139.106 27.28 139.566 26.78C140.026 26.26 140.376 25.62 140.616 24.86C140.856 24.08 140.976 23.18 140.976 22.16V21.26C140.976 20.24 140.856 19.35 140.616 18.59C140.376 17.81 140.026 17.17 139.566 16.67C139.106 16.15 138.526 15.76 137.826 15.5C137.126 15.22 136.326 15.08 135.426 15.08L131.526 15.08V28.31Z" fill="white"/>
<path d="M147.548 31.6986L151.443 11.4905L167.586 14.6018L166.893 18.1957L155.169 15.936L154.3 20.4431L164.669 22.4416L163.982 26.006L153.613 24.0075L152.665 28.927L164.566 31.2207L163.868 34.844L147.548 31.6986Z" fill="white"/>
<path d="M171.831 37.8942L172.572 16.0232L177.056 17.8183L176.295 31.6673C176.287 31.9012 176.27 32.1854 176.244 32.5196C176.226 32.8353 176.207 33.151 176.188 33.4666C176.17 33.7823 176.144 34.0627 176.11 34.3078L176.277 34.3747C176.433 34.2002 176.6 33.9978 176.779 33.7676C176.983 33.5263 177.178 33.2812 177.364 33.0324C177.568 32.7911 177.756 32.5646 177.927 32.353L186.944 21.7765L191.26 23.5048L176.677 39.8343L171.831 37.8942Z" fill="white"/>
<path d="M211.014 55.3977C210.435 54.8457 210.038 54.2327 209.824 53.5588C209.624 52.8704 209.608 52.1776 209.775 51.4805C209.957 50.7971 210.324 50.166 210.876 49.587C211.441 48.9935 212.061 48.5897 212.735 48.3757C213.424 48.1754 214.116 48.1589 214.814 48.3262C215.511 48.4935 216.149 48.8532 216.728 49.4052C217.321 49.9711 217.718 50.5982 217.918 51.2866C218.119 51.975 218.135 52.6678 217.968 53.3649C217.801 54.0621 217.434 54.7074 216.868 55.3008C216.316 55.8798 215.696 56.2695 215.007 56.4697C214.319 56.67 213.626 56.6865 212.929 56.5192C212.246 56.3374 211.607 55.9636 211.014 55.3977Z" fill="white"/>
<path d="M225.109 82.1637L247.119 80.8188L249.413 85.8399L233.982 101.593L231.976 97.1999L235.049 94.1803L231.323 86.0209L227.028 86.3662L225.109 82.1637ZM235.134 85.6989L237.788 91.5114L241.64 87.7406C241.807 87.5765 242.002 87.3775 242.225 87.1437C242.474 86.9198 242.747 86.6744 243.043 86.4074C243.338 86.1403 243.625 85.8775 243.903 85.6188C244.207 85.37 244.475 85.1378 244.706 84.9222L244.631 84.7584C244.244 84.8253 243.781 84.894 243.241 84.9645C242.72 85.0267 242.208 85.0847 241.705 85.1385C241.22 85.1841 240.82 85.2237 240.506 85.2573L235.134 85.6989Z" fill="white"/>
<path d="M233.583 100.571L253.583 95.7196L255.188 102.338L245.648 107.677C245.307 107.883 244.898 108.106 244.421 108.345C243.944 108.585 243.467 108.824 242.99 109.063C242.537 109.317 242.126 109.53 241.756 109.702L241.812 109.935C242.152 109.894 242.558 109.868 243.028 109.856C243.518 109.84 244.04 109.827 244.593 109.816C245.146 109.806 245.682 109.809 246.201 109.828L257.098 110.209L258.675 116.711L238.675 121.563L237.636 117.277L247.111 114.978C247.985 114.766 248.86 114.554 249.735 114.342C250.633 114.144 251.416 113.975 252.081 113.834C252.751 113.713 253.184 113.628 253.378 113.581L253.321 113.348C253.098 113.361 252.676 113.361 252.055 113.347C251.459 113.347 250.819 113.338 250.135 113.319C249.456 113.319 248.866 113.307 248.367 113.284L236.561 112.845L235.641 109.055L245.898 103.233C246.277 103.018 246.721 102.766 247.227 102.478C247.758 102.206 248.298 101.931 248.848 101.653C249.422 101.39 249.909 101.149 250.308 100.928L250.252 100.695C249.732 100.842 249.105 101.015 248.371 101.213C247.657 101.407 246.913 101.608 246.14 101.816C245.387 102.019 244.69 102.199 244.048 102.354L234.573 104.653L233.583 100.571Z" fill="white"/>
<path d="M238.294 119.374L259.227 126.306L259.49 131.82L239.31 140.71L239.08 135.886L243.056 134.225L242.629 125.265L238.514 123.989L238.294 119.374ZM246.286 126.382L246.59 132.765L251.568 130.696C251.784 130.605 252.038 130.493 252.332 130.359C252.647 130.244 252.992 130.117 253.366 129.979C253.739 129.841 254.103 129.704 254.457 129.567C254.832 129.449 255.167 129.333 255.462 129.219L255.453 129.039C255.069 128.957 254.613 128.849 254.086 128.714C253.579 128.578 253.082 128.441 252.595 128.304C252.128 128.166 251.742 128.054 251.438 127.969L246.286 126.382Z" fill="white"/>
<path d="M239.067 141.367L259.437 144.296L258.853 148.364L246.687 154.98C246.531 155.079 246.312 155.199 246.029 155.34C245.766 155.484 245.504 155.619 245.244 155.743C244.984 155.867 244.78 155.949 244.633 155.988L244.611 156.137C244.948 156.185 245.275 156.232 245.591 156.278C245.928 156.326 246.225 156.369 246.482 156.406L257.469 157.985L256.867 162.172L236.497 159.244L237.082 155.175L249.54 148.42C249.845 148.262 250.182 148.098 250.55 147.928C250.918 147.759 251.198 147.638 251.39 147.564L251.412 147.416C251.115 147.373 250.818 147.33 250.521 147.288C250.244 147.248 249.977 147.209 249.719 147.172L238.465 145.554L239.067 141.367Z" fill="white"/>
<path d="M232.878 168.776C233.591 166.716 234.574 165.067 235.828 163.829C237.082 162.591 238.593 161.833 240.361 161.556C242.128 161.279 244.137 161.53 246.386 162.308C248.673 163.1 250.416 164.148 251.615 165.452C252.834 166.762 253.544 168.288 253.745 170.03C253.965 171.778 253.719 173.682 253.006 175.742C252.28 177.84 251.293 179.499 250.046 180.718C248.811 181.962 247.31 182.723 245.542 183C243.793 183.284 241.775 183.03 239.488 182.238C237.239 181.46 235.505 180.415 234.287 179.105C233.068 177.794 232.349 176.265 232.129 174.517C231.902 172.787 232.152 170.874 232.878 168.776ZM236.336 169.973C236.016 170.899 235.867 171.758 235.889 172.548C235.912 173.339 236.106 174.063 236.472 174.718C236.837 175.374 237.356 175.955 238.027 176.463C238.717 176.977 239.553 177.404 240.536 177.744L241.415 178.048C242.416 178.395 243.347 178.579 244.207 178.602C245.067 178.624 245.834 178.488 246.508 178.192C247.2 177.902 247.8 177.454 248.307 176.846C248.813 176.238 249.227 175.471 249.547 174.545C249.861 173.638 250.007 172.789 249.985 171.998C249.962 171.207 249.768 170.484 249.402 169.828C249.055 169.179 248.537 168.598 247.847 168.084C247.151 167.589 246.302 167.168 245.3 166.821L244.421 166.517C243.438 166.177 242.52 165.986 241.667 165.945C240.826 165.929 240.059 166.066 239.366 166.355C238.674 166.644 238.074 167.093 237.567 167.701C237.061 168.308 236.65 169.066 236.336 169.973Z" fill="white"/>
<path d="M229.138 179.715L246.961 190.005L242.761 197.28C241.691 199.133 240.461 200.524 239.07 201.453C237.679 202.382 236.125 202.813 234.409 202.746C232.7 202.706 230.823 202.096 228.78 200.916C226.753 199.746 225.287 198.426 224.38 196.956C223.464 195.503 223.06 193.942 223.169 192.273C223.279 190.604 223.868 188.843 224.938 186.99L229.138 179.715ZM230.099 185.431L228.149 188.809C227.699 189.588 227.411 190.346 227.287 191.082C227.162 191.818 227.201 192.511 227.404 193.159C227.624 193.817 228.003 194.441 228.542 195.028C229.097 195.626 229.817 196.18 230.7 196.69L231.479 197.14C232.363 197.65 233.193 197.991 233.972 198.163C234.767 198.346 235.496 198.362 236.159 198.214C236.84 198.076 237.467 197.768 238.043 197.292C238.635 196.826 239.156 196.203 239.606 195.424L241.556 192.046L230.099 185.431Z" fill="white"/>
<path d="M218.416 197.333L233.97 210.81L223.204 223.234L220.438 220.837L228.257 211.814L224.788 208.808L217.872 216.789L215.129 214.412L222.044 206.431L218.258 203.15L210.321 212.31L207.532 209.893L218.416 197.333Z" fill="white"/>
<path d="M200.909 215.264L219.479 226.842L215.683 229.828L204.07 222.244C203.871 222.12 203.634 221.964 203.357 221.774C203.093 221.6 202.829 221.426 202.565 221.252C202.301 221.078 202.071 220.915 201.876 220.764L201.734 220.875C201.807 221.097 201.899 221.343 202.009 221.613C202.116 221.91 202.231 222.202 202.353 222.487C202.46 222.785 202.562 223.06 202.66 223.314L207.311 236.411L203.656 239.286L196.806 218.491L200.909 215.264Z" fill="white"/>
<path d="M166.159 240.446C166.927 240.221 167.656 240.184 168.347 240.335C169.043 240.506 169.651 240.838 170.171 241.332C170.672 241.831 171.035 242.464 171.261 243.232C171.492 244.019 171.531 244.757 171.38 245.448C171.209 246.144 170.877 246.753 170.384 247.273C169.89 247.793 169.26 248.165 168.492 248.391C167.705 248.622 166.964 248.652 166.267 248.481C165.571 248.31 164.963 247.978 164.443 247.485C163.923 246.991 163.547 246.351 163.316 245.565C163.091 244.797 163.063 244.065 163.234 243.369C163.405 242.672 163.737 242.064 164.23 241.544C164.73 241.043 165.372 240.677 166.159 240.446Z" fill="white"/>
</svg>
